<svg version="1.0" xmlns="http://www.w3.org/2000/svg"
 width="600.000000pt" height="600.000000pt" viewBox="0 0 600.000000 600.000000"
 preserveAspectRatio="xMidYMid meet">

<g transform="translate(0.000000,600.000000) scale(0.100000,-0.100000)"
fill="#ffffff" stroke="none">
<path d="M2842 5749 c-410 -28 -870 -164 -1214 -360 -763 -433 -1242 -1128
-1384 -2004 -21 -135 -30 -527 -15 -682 43 -431 195 -861 429 -1218 104 -159
182 -256 321 -398 241 -247 490 -427 786 -568 949 -451 2065 -342 2898 282
695 521 1120 1357 1121 2204 0 269 -31 486 -109 755 -99 340 -281 693 -501
970 -104 130 -355 375 -484 472 -162 121 -272 189 -445 273 -333 163 -660 249
-1040 275 -166 11 -187 11 -363 -1z m567 -78 c853 -146 1553 -662 1953 -1441
33 -63 49 -102 36 -85 -223 287 -483 499 -823 671 -321 162 -661 259 -1045
300 -194 20 -612 15 -795 -10 -1096 -151 -1986 -733 -2332 -1525 -18 -42 -33
-71 -33 -65 0 28 74 303 110 409 86 250 261 566 436 785 94 117 289 311 409
406 384 304 862 508 1320 563 50 6 101 13 115 15 14 3 138 3 275 1 198 -2 276
-7 374 -24z m87 -606 c655 -77 1222 -342 1624 -761 99 -103 176 -195 150 -179
-8 5 -42 30 -75 56 -125 98 -317 204 -502 278 -904 359 -2167 266 -3171 -234
-310 -155 -546 -319 -753 -525 -175 -173 -285 -326 -365 -507 -33 -74 -35 -76
-29 -33 34 240 144 518 296 745 174 259 384 463 679 660 458 305 1008 482
1615 519 104 6 405 -5 531 -19z m344 -459 c370 -49 685 -141 961 -282 110 -56
259 -151 319 -203 l35 -31 -85 39 c-696 319 -1830 303 -2890 -41 -882 -286
-1551 -747 -1752 -1207 l-29 -66 6 55 c32 286 172 554 424 814 299 307 711
553 1215 725 335 114 652 179 1056 215 112 10 621 -3 740 -18z m255 -307 c248
-21 470 -64 665 -129 111 -36 264 -100 257 -106 -1 -2 -36 6 -77 16 -91 23
-229 46 -370 60 -137 14 -540 14 -716 0 -930 -73 -2006 -411 -2712 -851 -310
-193 -550 -420 -647 -613 l-35 -69 0 54 c0 217 185 513 469 750 729 610 2055
982 3166 888z m490 -213 c109 -15 318 -56 313 -61 -2 -2 -68 2 -148 8 -246 18
-658 -13 -1037 -78 -1317 -227 -2758 -873 -3114 -1396 -22 -33 -45 -74 -51
-90 -7 -21 -14 -27 -21 -20 -16 16 9 154 42 225 85 189 272 379 563 573 667
446 1691 774 2663 853 164 13 659 4 790 -14z m352 -125 c174 -33 306 -86 377
-150 16 -14 39 -48 52 -76 66 -138 -1 -300 -203 -495 -115 -112 -178 -161
-333 -262 -259 -168 -563 -319 -935 -465 -142 -56 -539 -193 -559 -193 -6 0
18 17 53 38 128 74 248 216 304 355 146 365 -11 782 -357 952 -114 56 -184 75
-311 82 l-100 6 85 24 c269 73 719 158 995 187 83 9 166 18 185 20 19 2 170 3
335 1 258 -2 316 -5 412 -24z m-2337 -329 c-331 -213 -444 -637 -263 -983 75
-144 187 -251 338 -324 114 -54 163 -67 300 -74 l110 -6 -190 -47 c-526 -130
-1010 -198 -1413 -198 -210 0 -333 11 -483 45 -186 41 -320 120 -372 220 -28
52 -29 152 -3 215 123 304 701 693 1496 1008 120 47 528 191 545 191 6 1 -24
-21 -65 -47z m2860 -197 c-6 -33 -29 -96 -51 -140 -135 -275 -485 -560 -994
-809 -1000 -490 -2395 -721 -3248 -540 -42 10 -76 18 -75 20 2 1 68 -2 148 -7
261 -18 700 19 1085 90 1218 225 2438 739 2939 1236 84 84 166 195 189 257
l12 33 3 -40 c2 -22 -2 -67 -8 -100z m70 -143 c-15 -96 -38 -161 -94 -269 -64
-123 -131 -210 -265 -343 -522 -517 -1464 -884 -2521 -981 -199 -18 -642 -16
-828 5 -193 21 -386 56 -525 96 -108 31 -256 87 -305 116 l-27 15 25 -6 c294
-69 391 -80 765 -79 330 0 452 9 770 55 859 124 1775 444 2365 827 301 195
560 456 627 632 23 60 29 30 13 -68z m45 -254 c-103 -502 -559 -987 -1223
-1300 -369 -175 -756 -282 -1237 -345 -201 -26 -761 -26 -955 0 -282 38 -565
106 -761 183 -189 74 -430 209 -534 298 -28 24 -24 23 48 -10 196 -89 455
-158 737 -196 142 -19 211 -22 495 -23 335 0 437 6 725 46 752 104 1509 373
2027 720 308 207 559 470 658 690 37 82 44 59 20 -63z m19 -320 c-63 -269
-203 -552 -391 -792 -89 -113 -308 -324 -433 -417 -421 -315 -882 -497 -1455
-575 -185 -25 -617 -26 -807 -1 -265 35 -543 102 -751 183 -226 88 -506 244
-677 377 -123 96 -370 351 -370 382 0 3 24 -14 53 -38 125 -107 358 -236 560
-311 761 -283 1768 -268 2667 39 360 123 677 286 962 495 123 89 381 343 463
454 65 89 152 236 181 309 30 74 29 24 -2 -105z m-4 -386 c-63 -250 -198 -571
-335 -792 -378 -610 -996 -1050 -1675 -1194 -232 -50 -537 -68 -766 -47 -650
61 -1246 341 -1704 800 -143 143 -229 248 -335 406 -66 98 -213 365 -202 365
2 0 29 -33 60 -73 78 -101 273 -289 393 -379 360 -267 796 -439 1319 -518 199
-31 628 -39 843 -16 997 106 1851 595 2282 1306 53 88 139 261 141 282 0 10 2
10 6 0 2 -6 -10 -69 -27 -140z"/>
</g>
</svg>
